# xmcd
#
# Track frame offsets: 
#        150
#        16671
#        34822
#        51091
#        65195
#        82341
#        95939
#        115160
#        131360
#        150916
#        173060
#        193449
#
# Disc length: 2823 seconds
#
# Revision: 1
# Processed by: cddbd v1.5.2PL0 Copyright (c) Steve Scherf et al.
# Submitted via: ExactAudioCopy v0.99pb5
#
DISCID=a40b050c
DTITLE=Luis Miguel Del Amargue - Buscame
DYEAR=2006
DGENRE=Latin
TTITLE0=Bala Perdida
TTITLE1=No Te Enamores De Mi
TTITLE2=Niña Mujer
TTITLE3=Buscame
TTITLE4=Cuando Duele Un Engaño
TTITLE5=Cualquiera Vuelve
TTITLE6=Tragedia
TTITLE7=Besito A Besito
TTITLE8=Cuando Estoy Contigo
TTITLE9=Nunca Notaste
TTITLE10=No Te Vayas
TTITLE11=Quiero
EXTD=
EXTT0=
EXTT1=
EXTT2=
EXTT3=
EXTT4=
EXTT5=
EXTT6=
EXTT7=
EXTT8=
EXTT9=
EXTT10=
EXTT11=
PLAYORDER=
